Savages 2012 720p WEBRip XViD UNiQUE


[[.....Why not be the same as everyone else when YOU can be UNiQUE .....]] 


Format: AVI 
Format / Info: Audio Video Interleave 
Format profile: OpenDML 
File size: 3.28 GiB 
Duration: 1h 49mn 
Overall bit rate: 4 287 Kbps 
Writing application: VirtualDubMod 1.5.10.2 (build 2540/release) 
Writing library: VirtualDub build 30091/release 

Video 
ID: 0 
Format: MPEG-4 Visual 
Simple @ L1: Format profile 
Format settings, BVOP: No 
Format settings, QPel: No 
Format settings, GMC: No warppoints 
Format settings, Matrix: Default (H.263) 
Codec ID: XVID 
Codec ID / Hint: XviD 
Duration: 1h 49mn 
Bit rate: 3893 Kbps 
Width: 1 280 pixels 
Height: 532 pixels 
Display aspect ratio: 2.40:1 
Frame rate: 23.976 fps 
Color space: YUV 
Chroma subsampling: 4:2:0 
Bit depth: 8 bits 
Scan type: Progressive 
Compression mode: Lossy 
Bits / (Pixel * Frame): 0.238 
Stream size: 2.97 MiB (91%) 
Writing library: Lavc52.0.0 

Audio 
ID: 1 
Format: AC-3 
Format / Info: Audio Coding 3 
Mode extension: CM (complete main) 
Format settings, Endianness: Big 
Codec ID: 2000 
Duration: 1h 49mn 
Bit rate mode: Constant 
Bit rate: 384 Kbps 
Channel (s): 6 channels 
Channel positions: Front: LCR, Side: LR, LFE 
Sampling rate: 44.1 KHz 
Bit depth: 16 bits 
Compression mode: Lossy 
Delay relative to video: 400ms 
Stream size: 300 MiB (9%) 
Alignment: Aligned on interleaves 
Interleave duration,: 42 ms (1.00 video frame) 
Interleave preload duration, 500 ms 

 
http://www.imdb.com/title/tt1615065/


Ratings: 6.7/10 from 15.705 users Metascore: 59/100 
Reviews: 130 user | 219 critic | 41 from Metacritic.com 

Pot growers Ben and Chon face off against the Mexican drug cartel who kidnapped their shared girlfriend. 

Director: 
Oliver Stone 
Writers: 
Shane Salerno (screenplay), Don Winslow (screenplay), and 2 more credits 
Stars: 
Aaron Taylor-Johnson, Taylor Kitsch and Blake Lively | See full cast and crew 


Source Used 

Toothfairy / iTUNES...........Thanks 


Poster:

 
http://imgon.net/di-C0LJ.jpg


Screenshots:

 
http://imgon.net/di-E795.png

 
http://imgon.net/di-X6XL.jpg

 
http://imgon.net/di-TPFJ.png


ENJOY!